<svg xmlns="http://www.w3.org/2000/svg" width="16" height="16" fill="none">
  <rect width="14.75" height="14.75" x=".625" y=".625" fill="#404BBF" rx="1.375"/>
  <path fill="#F4F4FD" d="M11.4456 4.25506c.1728-.16541.4027-.25685.6413-.25503.2386.00181.4672.09674.6375.26475.1703.16802.269.39597.2753.63577.0063.23979-.0803.47268-.2415.6495L7.86357 11.7044c-.08416.0911-.18575.1642-.29867.215-.11292.0508-.23487.0781-.35854.0804-.12368.0023-.24655-.0205-.36126-.067-.11472-.0465-.21892-.1158-.30638-.2038L3.29283 8.46564c-.0904-.08468-.1629-.1868-.21318-.30027-.05029-.11346-.07733-.23595-.07951-.36015-.00218-.1242.02055-.24757.06682-.36274.04627-.11518.11515-.21981.20251-.30765.08737-.08783.19143-.15708.306-.2036.11456-.04652.23726-.06937.3608-.06718.12353.00219.24536.02938.35822.07993.11285.05056.21443.12345.29866.21433l2.56874 2.58136 4.26041-5.45748c.0076-.0095.0158-.01855.0245-.02713h-.0012Z"/>
  <rect width="14.75" height="14.75" x=".625" y=".625" stroke="#404BBF" stroke-width="1.25" rx="1.375"/>
</svg>
