
<svg aria-hidden="true" style="position: absolute; width: 0; height: 0; overflow: hidden;" version="1.1" xmlns="http://www.w3.org/2000/svg" xmlns:xlink="http://www.w3.org/1999/xlink">
<defs>
<symbol id="icon-twitter-1" viewBox="0 0 32 32">
<path  d="M32 6.078c-1.1 0.494-2.376 0.858-3.712 1.029l-0.068 0.007c1.36-0.817 2.381-2.078 2.873-3.58l0.013-0.046c-1.197 0.723-2.591 1.274-4.076 1.574l-0.084 0.014c-1.2-1.279-2.901-2.076-4.788-2.076-3.623 0-6.56 2.937-6.56 6.56v0c0 0.52 0.044 1.020 0.152 1.496-5.468-0.276-10.278-2.878-13.495-6.828l-0.027-0.034c-0.563 0.949-0.895 2.091-0.895 3.311 0 2.264 1.145 4.261 2.888 5.442l0.023 0.015c-1.092-0.030-2.109-0.325-2.997-0.823l0.033 0.017v0.072c0.004 3.164 2.237 5.806 5.213 6.438l0.043 0.008c-0.501 0.137-1.075 0.216-1.669 0.216-0.018 0-0.036-0-0.054-0l0.003 0c-0.031 0.001-0.067 0.001-0.103 0.001-0.403 0-0.796-0.041-1.176-0.119l0.037 0.006c0.873 2.624 3.273 4.496 6.121 4.57l0.009 0c-2.214 1.744-5.044 2.798-8.12 2.798-0.005 0-0.010 0-0.015 0h0.001c-0.538 0-1.054-0.024-1.57-0.090 2.826 1.846 6.287 2.944 10.004 2.944 0.021 0 0.042-0 0.063-0h-0.003c12.072 0 18.672-10 18.672-18.668 0-0.29-0.010-0.57-0.024-0.848 1.299-0.937 2.391-2.066 3.258-3.359l0.030-0.047z"></path>
</symbol>
<symbol id="icon-group-7" viewBox="0 0 67 32">
<path  d="M33.799 15.249c-0.272-0.35-0.435-0.796-0.435-1.28 0-0.048 0.002-0.096 0.005-0.144l-0 0.006v-2.054c0-0.63 0.143-1.108 0.428-1.435s0.776-0.49 1.472-0.489c0.654 0 1.118 0.139 1.392 0.418 0.299 0.355 0.445 0.79 0.412 1.229v0.483h-1.169v-0.489c0.001-0.019 0.001-0.042 0.001-0.065 0-0.146-0.013-0.289-0.037-0.428l0.002 0.015c-0.020-0.116-0.081-0.214-0.166-0.283l-0.001-0.001c-0.105-0.071-0.235-0.113-0.374-0.113-0.018 0-0.035 0.001-0.052 0.002l0.002-0c-0.015-0.001-0.033-0.002-0.051-0.002-0.147 0-0.283 0.044-0.397 0.12l0.003-0.002c-0.096 0.078-0.166 0.186-0.193 0.309l-0.001 0.004c-0.029 0.14-0.046 0.3-0.046 0.465 0 0.015 0 0.030 0 0.046l-0-0.002v2.492c-0.018 0.24 0.033 0.481 0.15 0.7 0.058 0.074 0.139 0.133 0.233 0.17s0.199 0.050 0.302 0.039c0.15 0.011 0.298-0.030 0.414-0.113 0.090-0.075 0.153-0.18 0.174-0.3l0-0.003c0.023-0.135 0.036-0.29 0.036-0.449 0-0.018-0-0.035-0.001-0.053l0 0.003v-0.506h1.169v0.462c0.033 0.457-0.109 0.911-0.404 1.291-0.269 0.305-0.726 0.458-1.399 0.458s-1.181-0.163-1.47-0.501zM38.668 15.269c-0.295-0.32-0.443-0.786-0.443-1.402v-2.16c0-0.61 0.148-1.072 0.443-1.385s0.789-0.469 1.482-0.468c0.688 0 1.179 0.156 1.474 0.468 0.295 0.313 0.446 0.775 0.446 1.385v2.16c0 0.61-0.15 1.078-0.45 1.4s-0.789 0.483-1.47 0.483-1.184-0.163-1.482-0.48zM40.694 14.751c0.106-0.2 0.154-0.42 0.14-0.639v-2.645c0.001-0.021 0.002-0.046 0.002-0.071 0-0.204-0.052-0.395-0.143-0.562l0.003 0.006c-0.059-0.076-0.142-0.135-0.239-0.172s-0.204-0.050-0.308-0.037c-0.105-0.013-0.212 0-0.309 0.037s-0.18 0.096-0.24 0.172c-0.090 0.16-0.142 0.35-0.142 0.553 0 0.026 0.001 0.052 0.003 0.077l-0-0.003v2.658c-0.015 0.22 0.033 0.439 0.14 0.639 0.069 0.067 0.151 0.121 0.242 0.156l0.005 0.002c0.089 0.036 0.192 0.056 0.3 0.056s0.211-0.021 0.306-0.058l-0.006 0.002c0.096-0.038 0.178-0.091 0.247-0.158l-0 0v-0.013zM43.476 9.917h1.259l0.947 3.986 0.968-3.986h1.225l0.123 5.753h-0.906l-0.097-3.998-0.935 3.998h-0.726l-0.968-4.013-0.090 4.013h-0.915l0.114-5.753zM49.41 9.917h1.961c1.13 0 1.695 0.545 1.695 1.634 0 1.043-0.595 1.564-1.784 1.563h-0.668v2.557h-1.211l0.007-5.753zM51.085 12.376c0.12 0.013 0.241 0.004 0.356-0.028s0.221-0.084 0.31-0.154c0.112-0.152 0.179-0.342 0.179-0.549 0-0.036-0.002-0.071-0.006-0.105l0 0.004c0.001-0.019 0.001-0.041 0.001-0.063 0-0.163-0.022-0.321-0.062-0.471l0.003 0.013c-0.017-0.057-0.048-0.111-0.089-0.158s-0.094-0.086-0.153-0.116c-0.14-0.059-0.304-0.094-0.475-0.094-0.023 0-0.046 0.001-0.068 0.002l0.003-0h-0.47v1.719h0.47zM54.812 9.917h1.3l1.334 5.753h-1.128l-0.264-1.327h-1.16l-0.271 1.327h-1.145l1.334-5.753zM55.923 13.677l-0.453-2.415-0.453 2.415h0.906zM58.523 9.917h0.847l1.622 3.282v-3.282h1.005v5.753h-0.806l-1.632-3.426v3.426h-1.039l0.002-5.753zM64.351 13.477l-1.349-3.552h1.135l0.823 2.281 0.772-2.281h1.111l-1.332 3.552v2.194h-1.162v-2.194zM35.668 18.186v0.301h-0.988v2.338h-0.414v-2.338h-0.993v-0.301h2.395zM38.764 20.824h-0.32c-0.003 0-0.006 0-0.009 0-0.030 0-0.058-0.009-0.081-0.026l0 0c-0.024-0.014-0.042-0.035-0.053-0.060l-0-0.001-0.286-0.627h-1.37l-0.286 0.627c-0.009 0.028-0.024 0.052-0.044 0.071l-0 0c-0.024 0.016-0.053 0.025-0.084 0.025-0.002 0-0.004-0-0.006-0h-0.32l1.211-2.639h0.421l1.225 2.628zM36.76 19.845h1.143l-0.484-1.074c-0.031-0.068-0.062-0.151-0.087-0.236l-0.003-0.013c-0.017 0.050-0.031 0.098-0.046 0.14l-0.044 0.111-0.479 1.072zM40.851 20.565c0.076 0.003 0.152 0.003 0.228 0 0.136-0.014 0.261-0.041 0.38-0.082l-0.012 0.003c0.053-0.019 0.107-0.042 0.162-0.065v-0.593h-0.484c-0.012 0.001-0.024-0.001-0.035-0.005s-0.021-0.009-0.030-0.016c-0.014-0.011-0.024-0.029-0.024-0.048v-0.203h0.939v1.011c-0.147 0.091-0.317 0.164-0.498 0.212l-0.013 0.003c-0.099 0.025-0.2 0.043-0.303 0.054-0.106 0.011-0.228 0.017-0.353 0.017h-0c-0.005 0-0.011 0-0.017 0-0.212 0-0.416-0.036-0.606-0.102l0.013 0.004c-0.186-0.065-0.347-0.159-0.486-0.278l0.002 0.002c-0.13-0.114-0.235-0.254-0.309-0.41l-0.003-0.008c-0.070-0.156-0.111-0.338-0.111-0.53 0-0.006 0-0.012 0-0.018v0.001c-0-0.006-0-0.012-0-0.019 0-0.193 0.040-0.376 0.113-0.542l-0.003 0.009c0.070-0.156 0.176-0.299 0.312-0.418 0.137-0.117 0.298-0.21 0.474-0.271l0.010-0.003c0.207-0.067 0.427-0.101 0.649-0.098 0.113 0 0.225 0.008 0.337 0.023 0.198 0.029 0.377 0.089 0.539 0.175l-0.009-0.004c0.074 0.041 0.145 0.087 0.211 0.138l-0.116 0.163c-0.009 0.015-0.023 0.027-0.039 0.036s-0.036 0.014-0.055 0.014c-0.028-0.001-0.053-0.008-0.076-0.021l0.001 0c-0.050-0.024-0.089-0.045-0.128-0.068l0.009 0.005c-0.046-0.026-0.099-0.050-0.155-0.069l-0.007-0.002c-0.062-0.022-0.137-0.043-0.214-0.058l-0.010-0.002c-0.088-0.015-0.188-0.023-0.291-0.023-0.006 0-0.011 0-0.017 0h0.001c-0.005-0-0.012-0-0.018-0-0.161 0-0.315 0.027-0.459 0.076l0.010-0.003c-0.138 0.048-0.256 0.119-0.357 0.21l0.001-0.001c-0.096 0.090-0.172 0.199-0.223 0.322l-0.002 0.006c-0.051 0.131-0.081 0.282-0.081 0.44s0.030 0.309 0.084 0.448l-0.003-0.008c0.118 0.253 0.329 0.446 0.588 0.539l0.007 0.002c0.154 0.046 0.317 0.063 0.479 0.052zM44.711 20.523h1.322v0.301h-1.726v-2.639h0.414l-0.010 2.338zM47.408 20.824h-0.414v-2.639h0.414v2.639zM48.948 18.198c0.025 0.012 0.046 0.028 0.063 0.048l0 0 1.77 1.989c-0.001-0.014-0.002-0.030-0.002-0.047s0.001-0.033 0.002-0.049l-0 0.002v-1.966h0.361v2.649h-0.208c-0.004 0-0.009 0-0.014 0-0.028 0-0.054-0.006-0.078-0.016l0.001 0c-0.025-0.013-0.047-0.030-0.065-0.050l-0-0-1.767-1.987v2.051h-0.346v-2.639h0.215c0.023 0 0.046 0.004 0.068 0.012zM54.189 18.186v0.29h-1.467v0.871h1.189v0.28h-1.189v0.9h1.467v0.29h-1.893v-2.632h1.893zM10.805 1.891l18.384 4.504v15.784l-18.384-4.502v-15.786zM9.626 0.545v17.898l20.739 5.083v-17.896l-20.739-5.085z"></path>
<path  d="M20.742 31.834l-20.742-5.087v-17.896l20.742 5.085v17.898z"></path>
<path d="M9.97 1.688l18.144 4.448-7.716 6.66-18.146-4.45 7.718-6.658zM9.626 0.545l-9.626 8.306 20.742 5.085 9.624-8.306-20.739-5.085zM21.909 30.827l8.457-7.299-8.457-2.074v9.374z"></path>
</symbol>
<symbol id="icon-group-5" viewBox="0 0 66 32">
<path  d="M10.207 9.77h-0.002c-1.862 0-3.371 1.361-3.371 3.040v0.002c0 1.679 1.509 3.040 3.371 3.040h0.002c1.862 0 3.371-1.361 3.371-3.040v-0.002c0-1.679-1.509-3.040-3.371-3.040zM35.092 8.798c-0.005-2.332-1.035-4.567-2.863-6.215s-4.307-2.578-6.893-2.583c-2.587 0.004-5.067 0.932-6.896 2.582s-2.86 3.884-2.865 6.217v12.858s19.515-1.96 19.517-12.856v-0.002zM0 25.877c0.005 1.622 0.721 3.177 1.994 4.325s2.996 1.794 4.796 1.799c1.799-0.005 3.523-0.651 4.795-1.798s1.989-2.701 1.994-4.323v-8.947s-13.579 1.365-13.579 8.945zM6.789 27.48c-0.352 0-0.695-0.094-0.988-0.27s-0.52-0.426-0.655-0.719-0.17-0.615-0.101-0.926c0.069-0.311 0.238-0.597 0.487-0.821s0.565-0.377 0.91-0.439c0.345-0.062 0.702-0.030 1.027 0.091s0.603 0.327 0.798 0.59c0.195 0.264 0.3 0.573 0.3 0.891 0.001 0.211-0.044 0.42-0.133 0.615s-0.22 0.373-0.385 0.522c-0.165 0.149-0.362 0.268-0.578 0.349s-0.448 0.123-0.682 0.123v-0.006zM19.207 24.597v3.329h-0.686v-3.329h0.686zM20.533 26.019v0.535h-1.514v-0.535h1.514zM20.693 24.597v0.537h-1.674v-0.537h1.674zM23.826 26.184v0.158c0 0.253-0.034 0.48-0.103 0.681s-0.165 0.373-0.29 0.515c-0.122 0.137-0.271 0.246-0.44 0.319l-0.008 0.003c-0.163 0.071-0.354 0.112-0.554 0.112-0.007 0-0.014-0-0.021-0h0.001c-0.209 0-0.4-0.037-0.574-0.112-0.176-0.077-0.326-0.186-0.447-0.321l-0.001-0.001c-0.127-0.144-0.228-0.315-0.292-0.503l-0.003-0.011c-0.065-0.194-0.103-0.417-0.103-0.649 0-0.011 0-0.023 0-0.034l-0 0.002v-0.158c0-0.255 0.034-0.482 0.103-0.681 0.069-0.201 0.165-0.373 0.29-0.514 0.127-0.142 0.276-0.25 0.448-0.325 0.174-0.075 0.365-0.112 0.574-0.112s0.402 0.037 0.574 0.112c0.174 0.075 0.323 0.183 0.448 0.325 0.127 0.142 0.224 0.313 0.293 0.514 0.070 0.2 0.105 0.427 0.105 0.681zM23.133 26.342v-0.162c0-0.177-0.016-0.332-0.048-0.466s-0.079-0.247-0.142-0.338c-0.113-0.168-0.303-0.277-0.518-0.277-0.007 0-0.014 0-0.021 0l0.001-0c-0.006-0-0.014-0-0.021-0-0.214 0-0.402 0.109-0.512 0.275l-0.001 0.002c-0.061 0.091-0.107 0.204-0.139 0.338s-0.048 0.29-0.048 0.466v0.162c0 0.175 0.016 0.331 0.048 0.466 0.032 0.134 0.079 0.248 0.142 0.341 0.063 0.091 0.139 0.161 0.229 0.208s0.193 0.071 0.309 0.071c0.116 0 0.219-0.024 0.309-0.071s0.165-0.117 0.226-0.208c0.061-0.093 0.107-0.207 0.139-0.341 0.032-0.136 0.048-0.291 0.048-0.466zM26.053 27.055c0-0.002 0-0.004 0-0.007 0-0.055-0.010-0.108-0.028-0.156l0.001 0.003c-0.020-0.054-0.053-0.099-0.095-0.133l-0.001-0c-0.047-0.041-0.114-0.082-0.199-0.121s-0.196-0.081-0.332-0.123c-0.176-0.057-0.318-0.113-0.457-0.176l0.027 0.011c-0.136-0.062-0.254-0.133-0.361-0.216l0.004 0.003c-0.098-0.078-0.179-0.173-0.24-0.281l-0.002-0.005c-0.055-0.105-0.087-0.228-0.087-0.36 0-0.006 0-0.012 0-0.018l-0 0.001c-0-0.003-0-0.006-0-0.009 0-0.135 0.034-0.261 0.093-0.372l-0.002 0.004c0.064-0.118 0.15-0.216 0.254-0.291l0.002-0.002c0.11-0.082 0.239-0.146 0.389-0.19 0.151-0.044 0.316-0.066 0.496-0.066 0.245 0 0.46 0.044 0.642 0.133s0.325 0.21 0.425 0.364c0.102 0.154 0.153 0.33 0.153 0.528h-0.681c0-0.003 0-0.007 0-0.011 0-0.090-0.023-0.174-0.063-0.247l0.001 0.003c-0.042-0.076-0.105-0.137-0.181-0.175l-0.002-0.001c-0.082-0.041-0.179-0.064-0.282-0.064-0.009 0-0.017 0-0.025 0l0.001-0c-0.007-0-0.016-0-0.024-0-0.099 0-0.192 0.020-0.277 0.057l0.005-0.002c-0.074 0.030-0.134 0.080-0.177 0.143l-0.001 0.001c-0.037 0.055-0.059 0.122-0.059 0.195 0 0.002 0 0.004 0 0.006v-0c0 0.056 0.014 0.107 0.041 0.153 0.029 0.046 0.072 0.088 0.128 0.128s0.126 0.077 0.208 0.112c0.082 0.035 0.178 0.069 0.286 0.103 0.181 0.055 0.341 0.117 0.478 0.185 0.139 0.069 0.255 0.146 0.348 0.231 0.173 0.156 0.281 0.382 0.281 0.632 0 0.009-0 0.018-0 0.027l0-0.001c0 0.145-0.028 0.274-0.085 0.389s-0.138 0.211-0.245 0.29c-0.107 0.079-0.234 0.139-0.382 0.181s-0.313 0.062-0.496 0.062c-0.165 0-0.327-0.021-0.487-0.064-0.166-0.046-0.312-0.114-0.442-0.202l0.005 0.003c-0.13-0.088-0.233-0.201-0.311-0.338s-0.117-0.3-0.117-0.487h0.688c0 0.104 0.016 0.191 0.048 0.263s0.077 0.13 0.135 0.174c0.059 0.044 0.13 0.076 0.21 0.096 0.082 0.020 0.172 0.030 0.27 0.030 0.007 0 0.015 0 0.024 0 0.097 0 0.189-0.018 0.274-0.052l-0.005 0.002c0.135-0.053 0.228-0.182 0.228-0.332 0-0.003-0-0.006-0-0.009v0zM28.694 24.597v3.329h-0.684v-3.329h0.684zM29.718 24.597v0.537h-2.716v-0.537h2.716zM32.343 27.391v0.535h-1.772v-0.535h1.772zM30.795 24.597v3.329h-0.686v-3.329h0.686zM32.112 25.953v0.521h-1.541v-0.521h1.541zM32.341 24.597v0.537h-1.77v-0.537h1.77zM32.743 24.597h1.242c0.255 0 0.473 0.038 0.656 0.114s0.326 0.189 0.425 0.338 0.149 0.333 0.149 0.551c0 0.178-0.030 0.332-0.091 0.46-0.060 0.128-0.146 0.235-0.252 0.317l-0.002 0.001c-0.109 0.084-0.236 0.152-0.373 0.198l-0.009 0.003-0.217 0.114h-1.079l-0.005-0.535h0.803c0.12 0 0.22-0.021 0.3-0.064s0.139-0.102 0.178-0.178c0.039-0.074 0.062-0.161 0.062-0.254 0-0.004-0-0.007-0-0.011v0.001c0-0.107-0.020-0.199-0.059-0.277s-0.1-0.137-0.181-0.178-0.182-0.062-0.304-0.062h-0.556v2.792h-0.686v-3.329zM34.605 27.926l-0.759-1.484 0.725-0.005 0.768 1.457v0.032h-0.734zM38.206 26.74h-0.848v-0.535h0.848c0.008 0 0.019 0.001 0.029 0.001 0.106 0 0.206-0.024 0.296-0.066l-0.004 0.002c0.082-0.044 0.143-0.105 0.181-0.183s0.057-0.165 0.057-0.263c0-0.099-0.019-0.191-0.057-0.277s-0.098-0.154-0.181-0.206-0.189-0.078-0.32-0.078h-0.611v2.792h-0.686v-3.329h1.297c0.261 0 0.484 0.047 0.67 0.142 0.187 0.093 0.331 0.222 0.43 0.386s0.149 0.353 0.149 0.565c0 0.215-0.050 0.401-0.149 0.558s-0.242 0.278-0.43 0.364c-0.185 0.081-0.402 0.129-0.629 0.129-0.014 0-0.029-0-0.043-0.001l0.002 0zM42.162 27.391v0.535h-1.772v-0.535h1.772zM40.614 24.597v3.329h-0.686v-3.329h0.686zM41.931 25.953v0.521h-1.541v-0.521h1.541zM42.16 24.597v0.537h-1.77v-0.537h1.77zM44.096 24.597v3.329h-0.684v-3.329h0.684zM45.121 24.597v0.537h-2.716v-0.537h2.716zM47.746 27.391v0.535h-1.772v-0.535h1.772zM46.198 24.597v3.329h-0.686v-3.329h0.686zM47.515 25.953v0.521h-1.541v-0.521h1.541zM47.744 24.597v0.537h-1.77v-0.537h1.77zM48.146 24.597h1.242c0.255 0 0.473 0.038 0.656 0.114s0.326 0.189 0.425 0.338 0.149 0.333 0.149 0.551c0 0.178-0.031 0.332-0.091 0.46s-0.146 0.235-0.252 0.317l-0.002 0.001c-0.109 0.084-0.236 0.152-0.373 0.198l-0.009 0.003-0.217 0.114h-1.079l-0.005-0.535h0.803c0.12 0 0.22-0.021 0.3-0.064s0.139-0.102 0.178-0.178c0.039-0.074 0.062-0.161 0.062-0.254 0-0.004-0-0.007-0-0.011v0.001c0-0.107-0.020-0.199-0.059-0.277s-0.1-0.137-0.181-0.178c-0.083-0.039-0.18-0.062-0.282-0.062-0.008 0-0.015 0-0.023 0l0.001-0h-0.556v2.792h-0.686v-3.329zM50.007 27.926l-0.759-1.484 0.725-0.005 0.768 1.457v0.032h-0.734zM52.879 27.055c0-0.002 0-0.004 0-0.007 0-0.055-0.010-0.108-0.028-0.156l0.001 0.003c-0.020-0.054-0.053-0.099-0.095-0.133l-0.001-0c-0.047-0.041-0.114-0.082-0.199-0.121s-0.196-0.081-0.332-0.123c-0.176-0.057-0.318-0.113-0.457-0.176l0.027 0.011c-0.136-0.062-0.254-0.133-0.361-0.216l0.004 0.003c-0.098-0.078-0.179-0.173-0.24-0.281l-0.002-0.005c-0.055-0.105-0.087-0.228-0.087-0.36 0-0.006 0-0.012 0-0.018l-0 0.001c0-0.139 0.030-0.264 0.091-0.377 0.064-0.118 0.15-0.216 0.254-0.291l0.002-0.002c0.11-0.082 0.239-0.146 0.389-0.19s0.316-0.066 0.496-0.066c0.245 0 0.46 0.044 0.642 0.133s0.325 0.21 0.425 0.364c0.102 0.154 0.153 0.33 0.153 0.528h-0.681c0-0.003 0-0.007 0-0.011 0-0.090-0.023-0.174-0.063-0.247l0.001 0.003c-0.042-0.076-0.105-0.137-0.181-0.175l-0.002-0.001c-0.082-0.041-0.179-0.064-0.282-0.064-0.009 0-0.017 0-0.025 0l0.001-0c-0.007-0-0.016-0-0.024-0-0.099 0-0.192 0.020-0.278 0.057l0.005-0.002c-0.074 0.030-0.134 0.080-0.177 0.143l-0.001 0.001c-0.037 0.055-0.059 0.122-0.059 0.195 0 0.002 0 0.004 0 0.006v-0c0 0.056 0.014 0.107 0.041 0.153 0.029 0.046 0.072 0.088 0.128 0.128s0.126 0.077 0.208 0.112c0.082 0.035 0.178 0.069 0.286 0.103 0.181 0.055 0.341 0.117 0.478 0.185 0.139 0.069 0.255 0.146 0.348 0.231 0.173 0.156 0.281 0.382 0.281 0.632 0 0.009-0 0.018-0 0.027l0-0.001c0 0.145-0.028 0.274-0.085 0.389s-0.138 0.211-0.245 0.29c-0.107 0.079-0.234 0.139-0.382 0.181s-0.313 0.062-0.496 0.062c-0.165 0-0.327-0.021-0.487-0.064-0.166-0.046-0.312-0.114-0.442-0.202l0.005 0.003c-0.13-0.088-0.233-0.201-0.311-0.338s-0.117-0.3-0.117-0.487h0.688c0 0.104 0.016 0.191 0.048 0.263s0.077 0.13 0.135 0.174c0.059 0.044 0.13 0.076 0.21 0.096 0.082 0.020 0.172 0.030 0.27 0.030 0.007 0 0.015 0 0.024 0 0.097 0 0.189-0.018 0.274-0.052l-0.005 0.002c0.135-0.053 0.228-0.182 0.228-0.332 0-0.003-0-0.006-0-0.009v0z"></path>
</symbol>
<symbol id="icon-linkedin" viewBox="0 0 32 32">
<path  d="M31.992 32v-0.001h0.008v-11.736c0-5.741-1.236-10.164-7.948-10.164-3.227 0-5.392 1.771-6.276 3.449h-0.093v-2.913h-6.364v21.364h6.627v-10.579c0-2.785 0.528-5.479 3.977-5.479 3.399 0 3.449 3.179 3.449 5.657v10.401h6.62zM0.528 10.636h6.635v21.364h-6.635v-21.364zM3.843 0c-2.121 0-3.843 1.721-3.843 3.843s1.721 3.879 3.843 3.879c2.121 0 3.843-1.757 3.843-3.879-0.002-2.122-1.721-3.841-3.843-3.843h-0z"></path>
</symbol>
<symbol id="icon-instagram" viewBox="0 0 32 32">
<path  d="M31.969 9.408c-0.075-1.7-0.35-2.869-0.744-3.882-0.424-1.111-1.053-2.058-1.849-2.837l-0.001-0.001c-0.779-0.792-1.724-1.419-2.778-1.826l-0.054-0.018c-1.019-0.394-2.182-0.669-3.882-0.744-1.713-0.081-2.257-0.1-6.601-0.1s-4.888 0.019-6.595 0.094c-1.7 0.075-2.869 0.35-3.882 0.744-1.111 0.424-2.058 1.053-2.837 1.849l-0.001 0.001c-0.792 0.78-1.419 1.724-1.826 2.778l-0.018 0.054c-0.394 1.019-0.669 2.182-0.744 3.882-0.081 1.713-0.1 2.257-0.1 6.601s0.019 4.888 0.094 6.595c0.075 1.7 0.35 2.869 0.744 3.882 0.427 1.11 1.056 2.057 1.849 2.837l0.001 0.001c0.78 0.792 1.724 1.419 2.778 1.826l0.054 0.018c1.019 0.394 2.182 0.669 3.882 0.744 1.706 0.075 2.25 0.094 6.595 0.094s4.888-0.018 6.595-0.094c1.7-0.075 2.869-0.35 3.882-0.744 2.157-0.849 3.832-2.525 4.663-4.627l0.019-0.055c0.394-1.019 0.669-2.182 0.744-3.882 0.075-1.707 0.094-2.251 0.094-6.595s-0.006-4.888-0.081-6.595zM29.087 22.473c-0.069 1.563-0.331 2.407-0.55 2.969-0.551 1.4-1.638 2.487-3.002 3.025l-0.036 0.013c-0.563 0.219-1.413 0.481-2.969 0.55-1.688 0.075-2.194 0.094-6.464 0.094s-4.782-0.018-6.464-0.094c-1.563-0.069-2.407-0.331-2.969-0.55-0.721-0.269-1.335-0.676-1.837-1.193l-0.001-0.001c-0.517-0.504-0.923-1.118-1.183-1.804l-0.011-0.034c-0.219-0.563-0.481-1.413-0.55-2.969-0.075-1.688-0.094-2.194-0.094-6.464s0.019-4.782 0.094-6.464c0.069-1.563 0.331-2.407 0.55-2.969 0.269-0.722 0.678-1.337 1.198-1.836l0.002-0.002c0.504-0.517 1.118-0.923 1.804-1.183l0.034-0.011c0.563-0.219 1.413-0.481 2.969-0.55 1.688-0.075 2.194-0.094 6.464-0.094 4.276 0 4.782 0.019 6.464 0.094 1.563 0.069 2.407 0.331 2.969 0.55 0.721 0.269 1.335 0.676 1.837 1.193l0.001 0.001c0.517 0.504 0.923 1.118 1.183 1.804l0.011 0.034c0.219 0.563 0.481 1.413 0.55 2.969 0.075 1.688 0.094 2.194 0.094 6.464s-0.019 4.77-0.094 6.457z"></path>
<path  d="M16.059 7.782c-4.538 0-8.22 3.682-8.22 8.22s3.682 8.22 8.22 8.22 8.22-3.682 8.22-8.22-3.682-8.22-8.22-8.22zM16.059 21.335c-2.901-0.058-5.23-2.423-5.23-5.332s2.329-5.274 5.224-5.332l0.005-0c2.901 0.058 5.23 2.423 5.23 5.332s-2.329 5.274-5.224 5.332l-0.005 0zM26.524 7.457c0 1.060-0.859 1.919-1.919 1.919s-1.919-0.859-1.919-1.919v0c0-1.060 0.859-1.919 1.919-1.919s1.919 0.859 1.919 1.919v0z"></path>
</symbol>
<symbol id="icon-group-6" viewBox="0 0 44 32">
<path  d="M3.333 26.694c0.171 0.19 0.262 0.429 0.257 0.673 0.009 0.16-0.023 0.319-0.091 0.466s-0.174 0.279-0.307 0.384c-0.29 0.197-0.648 0.314-1.033 0.314-0.043 0-0.087-0.002-0.129-0.004l0.006 0h-2.035v-4.266h1.993c0.034-0.002 0.074-0.004 0.115-0.004 0.367 0 0.709 0.107 0.996 0.291l-0.007-0.004c0.129 0.097 0.231 0.22 0.298 0.358s0.098 0.289 0.089 0.44c0.001 0.012 0.001 0.027 0.001 0.041 0 0.235-0.088 0.449-0.234 0.612l0.001-0.001c-0.155 0.17-0.368 0.287-0.607 0.334 0.27 0.044 0.514 0.174 0.688 0.365zM0.947 26.050h0.852c0.019 0.001 0.041 0.002 0.063 0.002 0.179 0 0.345-0.054 0.483-0.146l-0.003 0.002c0.064-0.052 0.114-0.117 0.145-0.189s0.045-0.15 0.037-0.228c0.006-0.077-0.007-0.155-0.038-0.227s-0.080-0.137-0.142-0.19c-0.138-0.092-0.308-0.146-0.491-0.146-0.024 0-0.047 0.001-0.070 0.003l0.003-0h-0.838v1.119zM2.424 27.686c0.068-0.053 0.122-0.12 0.157-0.195s0.050-0.157 0.044-0.238c0.005-0.082-0.011-0.165-0.046-0.24s-0.090-0.143-0.16-0.197c-0.147-0.098-0.327-0.156-0.521-0.156-0.020 0-0.040 0.001-0.060 0.002l0.003-0h-0.894v1.173h0.905c0.016 0.001 0.035 0.002 0.054 0.002 0.192 0 0.371-0.056 0.522-0.152l-0.004 0.002zM7.408 28.528l-1.109-1.667h-0.417v1.667h-0.954v-4.266h1.806c0.039-0.003 0.085-0.004 0.131-0.004 0.424 0 0.815 0.138 1.132 0.371l-0.005-0.004c0.252 0.232 0.405 0.537 0.429 0.86s-0.080 0.645-0.295 0.905c-0.223 0.23-0.527 0.383-0.861 0.433l1.181 1.705h-1.037zM5.882 26.28h0.78c0.542 0 0.813-0.215 0.813-0.646 0.005-0.088-0.009-0.176-0.044-0.259s-0.087-0.158-0.155-0.221c-0.149-0.11-0.336-0.176-0.539-0.176-0.026 0-0.052 0.001-0.078 0.003l0.003-0h-0.789l0.009 1.298zM12.621 27.67h-1.901l-0.336 0.859h-1l1.745-4.218h1.081l1.739 4.218h-1l-0.329-0.859zM12.366 27.024l-0.695-1.801-0.694 1.801h1.389zM19.147 28.528h-0.947l-2.123-2.901v2.901h-0.944v-4.266h0.944l2.123 2.918v-2.918h0.947v4.266zM24.55 27.507c-0.206 0.329-0.498 0.587-0.845 0.747l-0.012 0.005c-0.412 0.187-0.869 0.28-1.331 0.269h-1.685v-4.266h1.685c0.461-0.011 0.918 0.079 1.331 0.263 0.362 0.164 0.661 0.424 0.857 0.744 0.195 0.347 0.296 0.73 0.296 1.119s-0.102 0.772-0.296 1.119zM23.466 27.405c0.27-0.283 0.419-0.645 0.419-1.018s-0.149-0.735-0.419-1.018c-0.295-0.229-0.67-0.366-1.077-0.366-0.038 0-0.076 0.001-0.113 0.004l0.005-0h-0.657v2.761h0.657c0.433 0.024 0.859-0.106 1.185-0.363zM13.214 0.533s12.22 4.154 11.961 10.164v10.166s-12.211-4.156-11.957-10.166l-0.005-10.164zM36.062 18.483c2.308-1.43 4.978-2.316 7.764-2.576v-3.182c-3.211 1.114-5.935 3.134-7.764 5.758z"></path>
<path  d="M34.675 19.442c1.889-3.424 5.164-6.067 9.151-7.384v-9.17s-17.404 5.917-17.036 14.476v14.474s0.776-0.265 1.995-0.761c0-0.463 0-0.929 0.056-1.398 0.36-3.974 2.459-7.656 5.834-10.237z"></path>
<path  d="M33.020 24.819c0.091-1.004 0.295-1.997 0.609-2.963-2.102 2.229-3.374 4.995-3.639 7.909-0.025 0.275-0.039 0.55-0.046 0.834 1.457-0.626 2.556-1.158 3.634-1.726l-0.287 0.138c-0.208-0.889-0.327-1.909-0.327-2.957 0-0.434 0.020-0.864 0.061-1.288l-0.004 0.054zM33.712 24.871c-0.034 0.352-0.053 0.761-0.053 1.174 0 0.928 0.098 1.833 0.283 2.706l-0.015-0.085c4.755-2.561 10.098-6.519 9.892-11.302v-0.417c-3.397 0.342-6.575 1.679-9.047 3.805-0.545 1.204-0.922 2.6-1.056 4.067l-0.004 0.051z"></path>
</symbol>
<symbol id="icon-group-4" viewBox="0 0 34 32">
<path  d="M5.315 31.394c0.013 0 0.025 0.003 0.036 0.007s0.022 0.011 0.030 0.019l0.172 0.162c-0.135 0.131-0.296 0.235-0.475 0.304l-0.010 0.003c-0.19 0.070-0.409 0.111-0.638 0.111-0.017 0-0.034-0-0.051-0.001l0.003 0c-0.011 0-0.023 0-0.036 0-0.219 0-0.428-0.038-0.623-0.107l0.013 0.004c-0.189-0.067-0.351-0.166-0.488-0.292l0.001 0.001c-0.133-0.123-0.24-0.273-0.312-0.441l-0.003-0.008c-0.070-0.166-0.11-0.359-0.11-0.562 0-0.005 0-0.010 0-0.015v0.001c-0-0.007-0-0.015-0-0.023 0-0.399 0.175-0.757 0.452-1.002l0.001-0.001c0.147-0.127 0.323-0.226 0.517-0.293 0.193-0.065 0.414-0.103 0.645-0.103 0.007 0 0.015 0 0.022 0h-0.001c0.211-0.004 0.422 0.028 0.618 0.094 0.171 0.063 0.327 0.151 0.463 0.26l-0.144 0.173c-0.010 0.013-0.022 0.023-0.036 0.031l-0.001 0c-0.014 0.008-0.031 0.013-0.049 0.013-0.003 0-0.006-0-0.009-0l0 0c-0.023-0.001-0.044-0.008-0.063-0.018l0.001 0-0.078-0.046-0.108-0.059c-0.099-0.048-0.213-0.084-0.333-0.102l-0.007-0.001c-0.071-0.012-0.154-0.018-0.238-0.018-0.006 0-0.013 0-0.019 0h0.001c-0.005-0-0.011-0-0.016-0-0.165 0-0.324 0.028-0.472 0.080l0.010-0.003c-0.145 0.050-0.27 0.124-0.376 0.218l0.001-0.001c-0.103 0.095-0.185 0.21-0.24 0.34l-0.002 0.006c-0.056 0.129-0.088 0.28-0.088 0.438 0 0.007 0 0.014 0 0.020v-0.001c-0.003 0.158 0.027 0.315 0.088 0.464 0.053 0.127 0.134 0.244 0.239 0.344 0.099 0.093 0.221 0.166 0.358 0.214 0.141 0.050 0.292 0.075 0.444 0.074 0.088 0.001 0.176-0.004 0.263-0.015 0.218-0.023 0.414-0.109 0.571-0.238l-0.002 0.001c0.022-0.018 0.051-0.029 0.082-0.029 0 0 0 0 0 0v0zM10.292 30.58c0.003 0.195-0.037 0.389-0.116 0.573-0.070 0.166-0.181 0.318-0.325 0.445s-0.317 0.226-0.509 0.292c-0.196 0.065-0.421 0.103-0.655 0.103s-0.459-0.038-0.67-0.107l0.015 0.004c-0.195-0.068-0.364-0.168-0.508-0.294l0.002 0.001c-0.138-0.122-0.248-0.272-0.324-0.441l-0.003-0.008c-0.073-0.169-0.116-0.366-0.116-0.573s0.043-0.404 0.12-0.583l-0.004 0.010c0.074-0.167 0.185-0.32 0.327-0.451 0.144-0.123 0.317-0.218 0.506-0.282 0.421-0.14 0.889-0.14 1.31 0 0.191 0.066 0.365 0.166 0.508 0.293 0.271 0.242 0.441 0.593 0.441 0.983 0 0.013-0 0.026-0.001 0.038l0-0.002zM9.839 30.58c0-0.007 0-0.016 0-0.024 0-0.157-0.030-0.307-0.085-0.444l0.003 0.008c-0.053-0.135-0.132-0.25-0.231-0.344l-0-0c-0.101-0.094-0.223-0.168-0.357-0.215l-0.007-0.002c-0.142-0.048-0.306-0.076-0.476-0.076s-0.334 0.028-0.487 0.079l0.011-0.003c-0.141 0.049-0.263 0.123-0.365 0.218l0.001-0.001c-0.1 0.094-0.18 0.209-0.231 0.338l-0.002 0.006c-0.11 0.3-0.11 0.621 0 0.92 0.054 0.135 0.133 0.25 0.232 0.344l0 0c0.101 0.094 0.225 0.168 0.364 0.215 0.307 0.098 0.645 0.098 0.952 0 0.139-0.048 0.263-0.121 0.364-0.215 0.099-0.094 0.177-0.209 0.229-0.337l0.002-0.006c0.058-0.148 0.085-0.304 0.082-0.46zM13.687 31.062l0.045 0.103c0.017-0.037 0.032-0.070 0.050-0.103 0.019-0.039 0.037-0.073 0.058-0.104l-0.002 0.003 1.101-1.71c0.022-0.029 0.041-0.048 0.063-0.053 0.022-0.006 0.046-0.010 0.072-0.010 0.006 0 0.013 0 0.019 0.001l-0.001-0h0.325v2.781h-0.386v-2.132c-0.001-0.014-0.002-0.031-0.002-0.048s0.001-0.034 0.002-0.050l-0 0.002-1.107 1.734c-0.014 0.026-0.037 0.048-0.065 0.063s-0.061 0.023-0.095 0.023h-0.062c-0.034 0-0.066-0.008-0.095-0.023s-0.051-0.037-0.065-0.064l-1.14-1.745v2.232h-0.373v-2.776h0.325c0.004-0 0.008-0 0.012-0 0.028 0 0.055 0.003 0.080 0.010l-0.002-0c0.027 0.011 0.048 0.030 0.060 0.053l1.125 1.712c0.020 0.029 0.039 0.061 0.054 0.095l0.002 0.004zM17.83 30.924v1.042h-0.431v-2.777h0.961c0.181-0.003 0.362 0.017 0.536 0.061 0.139 0.034 0.269 0.093 0.379 0.173 0.092 0.071 0.165 0.163 0.213 0.268l0.002 0.004c0.046 0.099 0.073 0.215 0.073 0.337 0 0.006-0 0.012-0 0.019l0-0.001c0 0.003 0 0.007 0 0.011 0 0.254-0.122 0.479-0.311 0.62l-0.002 0.001c-0.111 0.084-0.24 0.146-0.381 0.184-0.145 0.041-0.311 0.064-0.483 0.064-0.013 0-0.025-0-0.038-0l0.002 0-0.521-0.007zM17.83 30.626h0.521c0.113 0.001 0.226-0.013 0.334-0.042 0.092-0.027 0.172-0.068 0.243-0.121l-0.002 0.001c0.121-0.098 0.198-0.247 0.198-0.414 0-0.001 0-0.003 0-0.004v0c0.005-0.077-0.010-0.154-0.043-0.226s-0.085-0.137-0.151-0.19c-0.144-0.095-0.32-0.152-0.51-0.152-0.024 0-0.048 0.001-0.072 0.003l0.003-0h-0.521v1.145zM23.621 31.97h-0.34c-0.002 0-0.004 0-0.006 0-0.033 0-0.064-0.010-0.089-0.026l0.001 0c-0.024-0.016-0.043-0.038-0.056-0.063l-0-0.001-0.293-0.672h-1.471l-0.304 0.672c-0.027 0.054-0.082 0.091-0.146 0.091-0.002 0-0.004-0-0.006-0h-0.34l1.293-2.782h0.448l1.31 2.782zM21.488 30.937h1.215l-0.513-1.132c-0.035-0.072-0.068-0.159-0.094-0.248l-0.003-0.013-0.050 0.145c-0.017 0.049-0.033 0.088-0.050 0.126l0.003-0.008-0.509 1.13zM25.483 29.201c0.026 0.012 0.048 0.029 0.065 0.050l0 0 1.885 2.097v-2.16h0.386v2.782h-0.215c-0.002 0-0.005 0-0.007 0-0.029 0-0.057-0.006-0.082-0.018l0.001 0c-0.027-0.013-0.050-0.031-0.069-0.052l-0-0-1.883-2.095c0.001 0.014 0.002 0.031 0.002 0.048s-0.001 0.034-0.002 0.050l0-0.002v2.068h-0.386v-2.782h0.228c0.002-0 0.004-0 0.006-0 0.026 0 0.051 0.005 0.074 0.014l-0.001-0zM30.993 30.863v1.104h-0.431v-1.104l-1.191-1.675h0.386c0.003-0 0.006-0 0.009-0 0.031 0 0.060 0.009 0.085 0.025l-0.001-0c0.023 0.018 0.042 0.038 0.057 0.062l0.001 0.001 0.745 1.081c0.030 0.046 0.056 0.088 0.078 0.129s0.039 0.079 0.054 0.118l0.056-0.12c0.024-0.049 0.048-0.091 0.075-0.13l-0.002 0.003 0.735-1.088c0.016-0.023 0.034-0.042 0.055-0.059l0.001-0c0.024-0.018 0.055-0.028 0.087-0.028 0.002 0 0.004 0 0.006 0h0.39l-1.194 1.683zM13.474 24.521c0.187 0.020 0.377 0.037 0.569 0.052 2.907-1.111 5.366-2.93 7.070-5.228s2.577-4.975 2.511-7.696l-3.204-2.737c0.651 2.896 0.347 5.89-0.88 8.647s-3.327 5.167-6.066 6.962z"></path>
<path  d="M12.33 24.393l0.086 0.015c2.927-1.789 5.158-4.286 6.406-7.17s1.454-6.021 0.592-9.006l-4.563-3.899c1.846 3.205 2.589 6.791 2.142 10.342s-2.063 6.921-4.663 9.718zM27.805 14.862c-0.775 2.989-2.658 5.685-5.369 7.687-0.739 0.553-1.574 1.073-2.453 1.52l-0.098 0.045c2.207-0.554 4.236-1.534 5.93-2.865s3.008-2.975 3.84-4.808l-1.851-1.579z"></path>
<path  d="M27.079 14.422l-2.635-2.251c-0.050 2.567-0.904 5.075-2.473 7.264s-3.795 3.98-6.448 5.185h0.013c0.591 0 1.182-0.030 1.769-0.090 2.479-0.865 4.669-2.24 6.375-4.004s2.874-3.861 3.4-6.104zM12.711 2.689l-3.143-2.689c-2.81 0.928-5.227 2.559-6.934 4.679s-2.625 4.632-2.634 7.206c0.011 2.844 1.131 5.604 3.184 7.843s4.921 3.829 8.151 4.518c2.883-3.001 4.571-6.709 4.818-10.586s-0.958-7.72-3.442-10.971zM34.341 14.008c-0.011-3.374-1.585-6.608-4.378-8.994s-6.577-3.731-10.526-3.74c-0.011-0-0.023-0-0.036-0-1.896 0-3.719 0.311-5.421 0.884l0.12-0.035 19.245 16.443c0.659-1.454 0.997-2.999 0.995-4.558z"></path>
</symbol>
<symbol id="icon-group-3" viewBox="0 0 25 32">
<path  d="M10.531 1.806h-0.084c-0.108-0.006-0.243-0.012-0.379-0.014l-0.009-0h-0.28c-0.244 0-0.494 0.006-0.741 0.019-0.008-0-0.018-0.001-0.028-0.001s-0.020 0-0.029 0.001l0.001-0c-2.376 0.139-4.581 0.733-6.575 1.696l0.104-0.045-0.266 0.128v13.625l0.623-0.211c0.404-0.148 0.982-0.323 1.569-0.477l0.162-0.036c1.488-0.398 3.202-0.638 4.967-0.662l0.015-0v1.79c-0.237 0.002-0.465 0.009-0.693 0.021l0.038-0.002h-0.051c-1.399 0.079-2.71 0.289-3.972 0.619l0.139-0.031c-1.59 0.398-3.124 0.996-4.566 1.779v-17.475c1.379-0.82 2.974-1.488 4.663-1.92l0.127-0.028c1.353-0.364 2.908-0.576 4.511-0.582h0.267c0.314 0.008 0.621 0.022 0.909 0.044 0.759 0.053 1.511 0.173 2.249 0.358v1.762c-0.628-0.154-1.372-0.271-2.133-0.326l-0.046-0.003-0.045-0.004c-0.152-0.013-0.304-0.026-0.446-0.026zM13.633 3.607c0.391 0.030 0.796 0.044 1.205 0.044 1.689-0.006 3.324-0.228 4.882-0.639l-0.135 0.030c1.589-0.4 3.123-0.998 4.564-1.781v17.163c-1.38 0.82-2.975 1.488-4.665 1.92l-0.127 0.028c-1.353 0.362-2.908 0.573-4.51 0.581l-0.005 0c-0.033 0-0.072 0-0.111 0-1.177 0-2.319-0.148-3.409-0.425l0.095 0.021v-17.275c0.265 0.061 0.537 0.117 0.814 0.164 0.455 0.077 0.934 0.133 1.401 0.167zM22.367 3.74l-0.623 0.21c-0.573 0.192-1.15 0.365-1.731 0.518-1.551 0.415-3.332 0.656-5.169 0.663h-0.004c-0.406 0-0.78-0.011-1.141-0.034l-0.497-0.033v14.017l0.427 0.038c0.395 0.034 0.803 0.052 1.214 0.052 1.45-0.007 2.853-0.198 4.19-0.553l-0.116 0.026c1.221-0.31 2.281-0.702 3.286-1.189l-0.102 0.045 0.266-0.128v-13.63zM1.684 25.977c-0.166-0.173-0.4-0.281-0.658-0.281-0.012 0-0.024 0-0.037 0.001l0.002-0c-0.004-0-0.009-0-0.013-0-0.139 0-0.272 0.028-0.394 0.078l0.007-0.003c-0.236 0.096-0.419 0.281-0.51 0.512l-0.002 0.006c-0.046 0.112-0.072 0.241-0.072 0.377 0 0.003 0 0.007 0 0.010v-0.001 2.335c-0.006 0.165 0.026 0.328 0.092 0.479 0.055 0.12 0.135 0.226 0.233 0.313 0.089 0.076 0.197 0.133 0.315 0.165l0.006 0.001c0.114 0.032 0.231 0.048 0.349 0.049 0.402-0.004 0.746-0.252 0.89-0.604l0.002-0.006c0.047-0.109 0.075-0.236 0.075-0.37 0-0.001 0-0.001 0-0.002v0-0.261h-0.61v0.208c0 0.005 0 0.010 0 0.016 0 0.069-0.013 0.135-0.038 0.196l0.001-0.004c-0.021 0.052-0.051 0.095-0.089 0.131l-0 0c-0.036 0.029-0.079 0.052-0.125 0.066l-0.003 0.001c-0.038 0.013-0.082 0.021-0.128 0.022h-0c-0.010 0.001-0.022 0.002-0.034 0.002-0.103 0-0.194-0.049-0.252-0.126l-0.001-0.001c-0.051-0.082-0.082-0.181-0.082-0.288 0-0.009 0-0.018 0.001-0.027l-0 0.001v-2.177c-0-0.007-0-0.016-0-0.024 0-0.118 0.028-0.23 0.077-0.329l-0.002 0.004c0.056-0.087 0.152-0.143 0.261-0.143 0.013 0 0.026 0.001 0.039 0.002l-0.002-0c0.003-0 0.006-0 0.009-0 0.107 0 0.202 0.051 0.263 0.13l0.001 0.001c0.068 0.090 0.104 0.2 0.101 0.313v0.202h0.604v-0.238c0-0.002 0-0.005 0-0.008 0-0.281-0.106-0.537-0.28-0.73l0.001 0.001zM5.31 25.95c-0.184-0.16-0.425-0.258-0.69-0.258s-0.506 0.098-0.691 0.259l0.001-0.001c-0.099 0.090-0.179 0.198-0.235 0.321l-0.002 0.006c-0.056 0.128-0.089 0.277-0.089 0.434 0 0.006 0 0.013 0 0.019v-0.001 2.239c-0 0.009-0 0.019-0 0.029 0 0.156 0.033 0.303 0.092 0.437l-0.003-0.007c0.055 0.12 0.136 0.227 0.237 0.313 0.090 0.084 0.197 0.151 0.316 0.195l0.006 0.002c0.108 0.042 0.233 0.067 0.364 0.067s0.256-0.024 0.371-0.069l-0.007 0.002c0.121-0.044 0.233-0.111 0.33-0.197 0.096-0.086 0.173-0.19 0.228-0.307l0.002-0.006c0.056-0.127 0.089-0.275 0.089-0.43 0-0.010-0-0.020-0-0.030l0 0.001v-2.239c0-0.007 0-0.014 0-0.022 0-0.155-0.033-0.303-0.092-0.437l0.003 0.007c-0.057-0.128-0.135-0.236-0.23-0.327l-0-0zM5.025 28.969c0.001 0.010 0.001 0.022 0.001 0.034 0 0.114-0.047 0.216-0.122 0.29l-0 0c-0.077 0.065-0.177 0.105-0.287 0.105s-0.21-0.040-0.288-0.105l0.001 0.001c-0.076-0.072-0.123-0.174-0.123-0.287 0-0.013 0.001-0.026 0.002-0.039l-0 0.002v-2.239c-0.001-0.010-0.001-0.022-0.001-0.034 0-0.114 0.047-0.216 0.122-0.29l0-0c0.077-0.065 0.177-0.105 0.287-0.105s0.21 0.040 0.288 0.105l-0.001-0.001c0.076 0.072 0.123 0.174 0.123 0.287 0 0.013-0.001 0.026-0.002 0.039l0-0.002v2.239zM10.072 29.969v-4.239h-0.587l-0.771 2.244h-0.011l-0.777-2.244h-0.581v4.239h0.606v-2.579h0.011l0.593 1.823h0.302l0.598-1.823h0.011v2.579h0.606zM13.513 26.027c-0.092-0.103-0.207-0.182-0.337-0.23l-0.006-0.002c-0.125-0.042-0.27-0.066-0.419-0.066-0.007 0-0.014 0-0.021 0h-0.899v4.239h0.604v-1.656h0.311c0.188 0.009 0.376-0.031 0.545-0.116 0.139-0.078 0.251-0.188 0.33-0.32l0.002-0.004c0.067-0.106 0.115-0.23 0.138-0.363l0.001-0.006c0.024-0.16 0.035-0.321 0.033-0.482 0.001-0.021 0.001-0.046 0.001-0.070 0-0.19-0.022-0.375-0.063-0.552l0.003 0.016c-0.043-0.153-0.12-0.284-0.223-0.39l0 0zM13.201 27.319c-0.003 0.081-0.024 0.157-0.057 0.224l0.001-0.003c-0.035 0.065-0.089 0.116-0.154 0.148l-0.002 0.001c-0.074 0.034-0.161 0.054-0.253 0.054-0.011 0-0.023-0-0.034-0.001l0.002 0h-0.275v-1.441h0.311c0.009-0 0.019-0.001 0.029-0.001 0.088 0 0.172 0.020 0.247 0.055l-0.004-0.002c0.062 0.037 0.111 0.090 0.141 0.155l0.001 0.002c0.032 0.069 0.051 0.15 0.053 0.235l0 0.001v0.282c0 0.099 0.006 0.2 0 0.291h-0.006zM16.374 25.73h-0.495l-0.934 4.239h0.604l0.177-0.911h0.823l0.177 0.911h0.604l-0.957-4.239zM15.817 28.481l0.297-1.537h0.011l0.296 1.537h-0.604zM20.277 28.284h-0.011l-0.912-2.554h-0.581v4.239h0.604v-2.549h0.012l0.923 2.549h0.568v-4.239h-0.604v2.554zM23.968 25.73l-0.486 1.685h-0.012l-0.486-1.685h-0.64l0.83 2.447v1.792h0.604v-1.792l0.83-2.447h-0.64zM0 31.166h0.291v0.817h0.198v-0.817h0.29v-0.167h-0.778v0.167zM2.447 30.998l-0.381 0.984h0.21l0.081-0.224h0.392l0.084 0.224h0.215l-0.391-0.984h-0.21zM2.416 31.593l0.134-0.365 0.134 0.365h-0.268zM4.866 31.62h0.227v0.127c-0.064 0.051-0.145 0.082-0.234 0.083h-0c-0.005 0-0.011 0.001-0.017 0.001-0.078 0-0.147-0.036-0.192-0.093l-0-0.001c-0.046-0.065-0.074-0.147-0.074-0.235 0-0.008 0-0.016 0.001-0.023l-0 0.001c0-0.219 0.095-0.329 0.283-0.329 0.006-0.001 0.014-0.001 0.022-0.001 0.097 0 0.178 0.067 0.2 0.157l0 0.001 0.195-0.038c-0.042-0.192-0.181-0.289-0.417-0.289-0.004-0-0.008-0-0.013-0-0.128 0-0.244 0.048-0.332 0.128l0-0c-0.088 0.089-0.142 0.212-0.142 0.347 0 0.011 0 0.023 0.001 0.034l-0-0.002c-0 0.007-0.001 0.016-0.001 0.025 0 0.132 0.048 0.252 0.127 0.345l-0.001-0.001c0.087 0.090 0.208 0.145 0.343 0.145 0.011 0 0.022-0 0.033-0.001l-0.001 0c0.005 0 0.010 0 0.016 0 0.155 0 0.296-0.060 0.401-0.158l-0 0v-0.388h-0.427v0.166zM7.337 30.998h-0.199v0.984h0.69v-0.167h-0.49v-0.817zM9.426 30.998h-0.199v0.984h0.199v-0.984zM11.469 31.656l-0.403-0.657h-0.193v0.984h0.185v-0.643l0.395 0.643h0.198v-0.984h-0.182v0.657zM13.315 31.549h0.49v-0.167h-0.49v-0.216h0.528v-0.167h-0.727v0.984h0.747v-0.167h-0.548v-0.266zM17.792 31.387h-0.388v-0.388h-0.198v0.984h0.198v-0.43h0.388v0.43h0.198v-0.984h-0.198v0.388zM19.649 31.549h0.492v-0.167h-0.492v-0.216h0.529v-0.167h-0.727v0.984h0.746v-0.167h-0.548v-0.266zM22.168 31.549c0.171-0.027 0.258-0.117 0.258-0.274 0.001-0.008 0.002-0.018 0.002-0.028 0-0.078-0.038-0.148-0.097-0.191l-0.001-0c-0.073-0.037-0.158-0.059-0.249-0.059-0.014 0-0.027 0-0.041 0.001l0.002-0h-0.417v0.984h0.198v-0.412h0.039c0.005-0 0.011-0.001 0.017-0.001 0.038 0 0.075 0.008 0.108 0.023l-0.002-0.001c0.029 0.018 0.052 0.042 0.069 0.071l0.001 0.001 0.215 0.313h0.237l-0.12-0.192c-0.054-0.096-0.128-0.175-0.216-0.234l-0.002-0.002zM21.969 31.413h-0.146v-0.247h0.156c0.013-0.001 0.027-0.002 0.042-0.002 0.057 0 0.112 0.009 0.163 0.026l-0.004-0.001c0.014 0.013 0.026 0.029 0.033 0.046 0.006 0.015 0.010 0.032 0.010 0.050 0 0.022-0.005 0.043-0.015 0.062l0-0.001c-0.009 0.017-0.022 0.032-0.037 0.043l-0 0c-0.048 0.015-0.104 0.024-0.162 0.024-0.014 0-0.028-0-0.041-0.002l0.002 0zM24.067 31.549h0.49v-0.167h-0.49v-0.216h0.529v-0.167h-0.729v0.984h0.747v-0.167h-0.548v-0.266z"></path>
</symbol>
<symbol id="icon-group-2" viewBox="0 0 28 32">
<path  d="M4.085 0l4.771 4.546-8.856-0.005v22.054h23.149v-8.432l4.766 4.541v-22.703h-23.83zM22.939 17.629l-13.528-12.889h13.528v12.889zM18.739 23.369h-15.076v-14.833h1.066v13.828h14.010v1.004zM6.67 30.68l0.562-1.155h0.462l-0.814 1.529v0.891h-0.421v-0.891l-0.814-1.529h0.464l0.562 1.155zM8.741 29.525h0.1l0.914 2.42h-0.439l-0.196-0.567h-0.937l-0.195 0.567h-0.437l0.911-2.42h0.279zM8.297 31.047h0.709l-0.355-1.027-0.354 1.027zM11.222 30.646l-0.053-0.068c-0.054-0.069-0.102-0.147-0.142-0.23l-0.003-0.008c-0.033-0.075-0.053-0.163-0.053-0.256 0-0.113 0.029-0.22 0.080-0.313l-0.002 0.003c0.052-0.090 0.127-0.162 0.218-0.208l0.003-0.001c0.093-0.047 0.202-0.075 0.318-0.075 0.006 0 0.011 0 0.017 0h-0.001c0.123 0 0.229 0.025 0.317 0.075 0.090 0.049 0.158 0.114 0.206 0.194 0.049 0.081 0.073 0.17 0.073 0.266 0 0.076-0.014 0.146-0.042 0.209s-0.066 0.121-0.115 0.173c-0.051 0.054-0.107 0.102-0.166 0.146l-0.004 0.002-0.168 0.122 0.479 0.566c0.066-0.127 0.105-0.278 0.105-0.438 0-0.005-0-0.010-0-0.015v0.001h0.346c0 0.117-0.012 0.229-0.035 0.334-0.032 0.152-0.094 0.287-0.179 0.403l0.002-0.003 0.355 0.418h-0.464l-0.141-0.165c-0.071 0.055-0.153 0.101-0.241 0.134l-0.007 0.002c-0.11 0.040-0.236 0.063-0.368 0.063-0.003 0-0.005 0-0.008-0h0c-0.161 0-0.3-0.029-0.417-0.088s-0.208-0.14-0.273-0.243c-0.060-0.098-0.095-0.216-0.095-0.343 0-0.004 0-0.008 0-0.012v0.001c0-0.099 0.021-0.185 0.061-0.259 0.046-0.081 0.102-0.15 0.167-0.208l0.001-0.001c0.066-0.059 0.14-0.119 0.224-0.178zM11.42 30.889l-0.050 0.036c-0.051 0.039-0.094 0.085-0.13 0.136l-0.001 0.002c-0.043 0.062-0.069 0.14-0.069 0.223 0 0.068 0.017 0.132 0.047 0.188l-0.001-0.002c0.032 0.058 0.078 0.105 0.133 0.137l0.002 0.001c0.060 0.033 0.132 0.050 0.218 0.050 0.001 0 0.001 0 0.002 0 0.148 0 0.283-0.052 0.39-0.138l-0.001 0.001-0.539-0.633zM11.516 30.447l-0.028-0.035c-0.038-0.048-0.073-0.102-0.102-0.159l-0.003-0.006c-0.023-0.045-0.037-0.098-0.038-0.155v-0c0-0.052 0.009-0.099 0.028-0.141 0.039-0.085 0.123-0.143 0.222-0.143 0.003 0 0.007 0 0.010 0h-0c0.081 0 0.144 0.024 0.188 0.073s0.067 0.102 0.067 0.16c0 0.003 0 0.007 0 0.011 0 0.059-0.017 0.114-0.046 0.16l0.001-0.001c-0.041 0.054-0.091 0.1-0.148 0.135l-0.002 0.001-0.148 0.1zM15.75 31.157h-0.416c-0.010 0.099-0.037 0.19-0.078 0.273l0.002-0.005c-0.038 0.072-0.096 0.128-0.166 0.164l-0.002 0.001c-0.076 0.036-0.166 0.057-0.26 0.057-0.010 0-0.020-0-0.029-0.001l0.001 0c-0.098 0-0.181-0.019-0.251-0.058s-0.127-0.094-0.173-0.165c-0.045-0.073-0.079-0.158-0.099-0.249l-0.001-0.005c-0.020-0.096-0.032-0.207-0.032-0.321 0-0.004 0-0.008 0-0.012v0.001-0.204c0-0.129 0.012-0.243 0.035-0.342 0.024-0.101 0.060-0.186 0.108-0.254s0.107-0.121 0.178-0.156c0.070-0.034 0.151-0.053 0.237-0.053 0.004 0 0.008 0 0.012 0h-0.001c0.116 0 0.211 0.020 0.283 0.060 0.071 0.038 0.127 0.097 0.162 0.168l0.001 0.002c0.039 0.078 0.065 0.169 0.073 0.265l0 0.003h0.416c-0.015-0.16-0.063-0.306-0.139-0.435l0.003 0.005c-0.073-0.125-0.176-0.223-0.309-0.294s-0.296-0.106-0.489-0.106c-0.152 0-0.289 0.027-0.411 0.080-0.123 0.055-0.227 0.133-0.31 0.23l-0.001 0.001c-0.086 0.1-0.153 0.22-0.2 0.361-0.043 0.136-0.068 0.292-0.068 0.454 0 0.006 0 0.013 0 0.019v-0.001 0.201c0 0.174 0.022 0.331 0.067 0.472s0.111 0.261 0.196 0.361c0.083 0.096 0.186 0.174 0.302 0.227l0.005 0.002c0.12 0.053 0.254 0.080 0.404 0.080 0.195 0 0.361-0.035 0.497-0.106s0.242-0.168 0.317-0.291c0.074-0.121 0.122-0.266 0.133-0.421l0-0.003zM18.059 30.801v-0.133c0-0.183-0.024-0.346-0.073-0.49-0.046-0.143-0.116-0.267-0.205-0.373l0.001 0.002c-0.085-0.1-0.191-0.179-0.311-0.232l-0.006-0.002c-0.117-0.051-0.253-0.081-0.395-0.081-0.005 0-0.009 0-0.014 0h0.001c-0.148 0-0.284 0.027-0.407 0.081-0.126 0.055-0.232 0.135-0.316 0.233l-0.001 0.001c-0.089 0.104-0.159 0.228-0.204 0.363l-0.002 0.008c-0.046 0.139-0.073 0.299-0.073 0.466 0 0.008 0 0.017 0 0.025l-0-0.001v0.133c0 0.183 0.024 0.347 0.073 0.492 0.050 0.145 0.12 0.269 0.209 0.371s0.196 0.18 0.317 0.234c0.123 0.053 0.259 0.080 0.407 0.080 0.15 0 0.286-0.027 0.409-0.080 0.125-0.056 0.231-0.135 0.315-0.233l0.001-0.001c0.089-0.102 0.157-0.226 0.204-0.371s0.072-0.309 0.072-0.492zM17.642 30.665v0.136c0 0.135-0.013 0.255-0.040 0.359-0.023 0.1-0.062 0.189-0.115 0.267l0.002-0.003c-0.090 0.13-0.239 0.215-0.407 0.215-0.009 0-0.017-0-0.025-0.001l0.001 0c-0.003 0-0.006 0-0.009 0-0.086 0-0.168-0.020-0.24-0.055l0.003 0.001c-0.075-0.039-0.137-0.094-0.185-0.159l-0.001-0.002c-0.051-0.072-0.090-0.16-0.116-0.264s-0.040-0.224-0.040-0.359v-0.136c0-0.135 0.013-0.254 0.040-0.357 0.024-0.099 0.064-0.186 0.117-0.264l-0.002 0.003c0.091-0.131 0.241-0.215 0.411-0.215 0.007 0 0.013 0 0.020 0l-0.001-0c0.092 0 0.175 0.018 0.248 0.055 0.076 0.037 0.138 0.092 0.183 0.158l0.001 0.002c0.051 0.070 0.089 0.157 0.115 0.261 0.027 0.103 0.040 0.222 0.040 0.357z"></path>
</symbol>
<symbol id="icon-facebook" viewBox="0 0 32 32">
<path  d="M21.329 5.313h2.921v-5.088c-0.504-0.069-2.237-0.225-4.256-0.225-4.212 0-7.097 2.649-7.097 7.519v4.481h-4.648v5.688h4.648v14.312h5.699v-14.311h4.46l0.708-5.688h-5.169v-3.919c0.001-1.644 0.444-2.769 2.735-2.769z"></path>
</symbol>
<symbol id="icon-diagram" viewBox="0 0 32 32">
<path fill="#4d5ae5" style="fill: var(--color3, #4d5ae5)" d="M14.926 14.965h1.066v4.798h-1.066v-4.797zM19.19 17.097h1.066v2.665h-1.066v-2.665zM10.661 18.696h1.066v1.066h-1.066v-1.066zM7.463 18.163h1.066v1.599h-1.066v-1.599z"></path>
<path fill="#2e2f42" style="fill: var(--color4, #2e2f42)" d="M1.599 28.291h25.587c0.883-0.001 1.598-0.716 1.599-1.599v-2.132c-0.001-0.883-0.716-1.598-1.599-1.599h-0.533v-13.293l3.028-2.868c0.208 0.105 0.452 0.166 0.712 0.166 0.888 0 1.608-0.72 1.608-1.608s-0.72-1.608-1.608-1.608c-0.888 0-1.608 0.72-1.608 1.608 0 0.246 0.055 0.48 0.155 0.689l-0.004-0.010-2.281 2.163v-1.23c-0.001-0.883-0.716-1.598-1.599-1.599h-21.322c-0.883 0.001-1.598 0.716-1.599 1.599v15.992h-0.533c-0.883 0.001-1.598 0.716-1.599 1.599v2.132c0.001 0.883 0.716 1.598 1.599 1.599h0zM30.384 4.837c0.295 0 0.534 0.239 0.534 0.534s-0.239 0.534-0.534 0.534v0c-0.295 0-0.534-0.239-0.534-0.534s0.239-0.534 0.534-0.534v0zM3.198 6.969c0-0.294 0.239-0.533 0.533-0.533h21.322c0.294 0 0.533 0.239 0.533 0.533v2.239l-1.066 1.013v-2.186c0-0.294-0.239-0.533-0.533-0.533v0h-19.19c-0.294 0-0.533 0.239-0.533 0.533v0 13.326c0 0.294 0.239 0.533 0.533 0.533h19.19c0.294 0 0.533-0.239 0.533-0.533v0-9.674l1.066-1.010v12.284h-22.388v-15.992zM7.996 13.899c-0 0-0.001 0-0.002 0-0.883 0-1.598 0.715-1.598 1.598s0.715 1.598 1.598 1.598c0.431 0 0.822-0.17 1.109-0.447l-0.001 0 1.853 0.93c0.069 0.035 0.151 0.056 0.238 0.056 0.158 0 0.3-0.069 0.398-0.179l0-0.001 3.939-4.431 3.872 2.901c0.088 0.067 0.199 0.107 0.32 0.107 0.142 0 0.271-0.055 0.366-0.146l-0 0 3.365-3.188v8.131h-18.124v-12.26h18.124v2.66l-3.771 3.572-3.904-2.927c-0.088-0.067-0.199-0.107-0.32-0.107-0.158 0-0.3 0.069-0.398 0.178l-0 0.001-3.993 4.493-1.493-0.746c0.011-0.064 0.018-0.129 0.020-0.193-0.001-0.883-0.716-1.598-1.599-1.599h-0zM8.529 15.498c0 0.295-0.239 0.533-0.534 0.533s-0.534-0.239-0.534-0.534v0c0-0.295 0.239-0.534 0.534-0.534s0.534 0.239 0.534 0.534v0zM11.727 24.027h5.331v0.533c0 0.294-0.239 0.533-0.533 0.533v0h-4.264c-0.294 0-0.533-0.239-0.533-0.533v0-0.533zM1.066 24.56c0-0.294 0.239-0.533 0.533-0.533h9.062v0.533c0.001 0.883 0.716 1.598 1.599 1.599h4.264c0.883-0.001 1.598-0.716 1.599-1.599v-0.533h9.062c0.294 0 0.533 0.239 0.533 0.533v2.132c0 0.294-0.239 0.533-0.533 0.533v0h-25.587c-0.294 0-0.533-0.239-0.533-0.533v0-2.132z"></path>
</symbol>
<symbol id="icon-clock" viewBox="0 0 32 32">
<path fill="#2e2f42" style="fill: var(--color4, #2e2f42)" d="M31.297 15.301c-0.002-8.452-6.855-15.303-15.308-15.301s-15.303 6.855-15.301 15.308c0.001 6.788 4.422 12.543 10.541 14.545l0.108 0.031c0.057 0.018 0.123 0.028 0.191 0.028 0.125 0 0.242-0.035 0.341-0.095l-0.003 0.002c0.134-0.080 0.234-0.204 0.282-0.352l0.001-0.005 3.865-12.25c1.051-0.006 1.901-0.86 1.901-1.912 0-1.056-0.856-1.912-1.912-1.912-0.301 0-0.587 0.070-0.84 0.194l0.011-0.005-5.106-5.107c-0.115-0.115-0.275-0.187-0.451-0.187-0.352 0-0.638 0.286-0.638 0.638 0 0.176 0.071 0.336 0.187 0.451v0l5.103 5.109c-0.121 0.241-0.191 0.525-0.191 0.826 0 0.601 0.283 1.137 0.723 1.48l0.004 0.003-3.683 11.673c-7.278-2.681-11.004-10.754-8.323-18.032s10.754-11.004 18.032-8.323c7.278 2.681 11.004 10.754 8.323 18.032-1.345 3.581-4.003 6.406-7.374 7.937l-0.088 0.036-0.398-1.874c-0.062-0.291-0.318-0.507-0.624-0.507-0.164 0-0.313 0.062-0.426 0.163l0.001-0-3.837 3.426c-0.132 0.117-0.214 0.287-0.214 0.477 0 0.283 0.185 0.523 0.441 0.606l0.005 0.001 4.899 1.564c0.058 0.019 0.125 0.030 0.195 0.030 0.352 0 0.638-0.286 0.638-0.638 0-0.047-0.005-0.093-0.015-0.137l0.001 0.004-0.391-1.839c5.528-2.374 9.329-7.772 9.329-14.057 0-0.011 0-0.023-0-0.034v0.002zM15.992 14.664c0.353 0 0.639 0.286 0.639 0.639s-0.286 0.639-0.639 0.639v0c-0.353 0-0.639-0.286-0.639-0.639s0.286-0.639 0.639-0.639v0zM18.093 29.528l2.184-1.948 0.603 2.84-2.787-0.892z"></path>
<path fill="#4d5ae5" style="fill: var(--color3, #4d5ae5)" d="M15.354 3.185v1.275c0 0.352 0.286 0.638 0.638 0.638s0.638-0.286 0.638-0.638v-1.275c0-0.352-0.286-0.638-0.638-0.638s-0.638 0.286-0.638 0.638v0zM3.876 14.664c-0.352 0-0.638 0.286-0.638 0.638s0.286 0.638 0.638 0.638h1.275c0.352 0 0.638-0.286 0.638-0.638s-0.286-0.638-0.638-0.638h-1.275zM28.108 15.939c0.352 0 0.638-0.286 0.638-0.638s-0.286-0.638-0.638-0.638h-1.275c-0.352 0-0.638 0.286-0.638 0.638s0.286 0.638 0.638 0.638h1.275z"></path>
</symbol>
<symbol id="icon-astronaut" viewBox="0 0 32 32">
<path fill="#4d5ae5" style="fill: var(--color3, #4d5ae5)" d="M31.974 4.524c-0.064-0.191-0.227-0.332-0.427-0.363l-0.003-0-1.91-0.278-0.855-1.731c-0.179-0.365-0.777-0.365-0.956 0l-0.855 1.731-1.91 0.278c-0.259 0.040-0.455 0.262-0.455 0.529 0 0.149 0.061 0.284 0.159 0.381l0 0 1.383 1.348-0.326 1.903c-0.034 0.2 0.048 0.402 0.212 0.522 0.087 0.064 0.195 0.102 0.313 0.102 0.091 0 0.177-0.023 0.252-0.064l-0.003 0.001 1.709-0.899 1.709 0.899c0.071 0.038 0.156 0.060 0.246 0.060 0.296 0 0.536-0.24 0.536-0.536 0-0.031-0.003-0.061-0.008-0.090l0 0.003-0.326-1.903 1.383-1.348c0.099-0.097 0.161-0.233 0.161-0.383 0-0.059-0.009-0.115-0.027-0.168l0.001 0.004zM29.511 5.851c-0.099 0.097-0.161 0.232-0.161 0.382 0 0.032 0.003 0.063 0.008 0.093l-0-0.003 0.191 1.114-1-0.526c-0.072-0.039-0.158-0.062-0.249-0.062s-0.177 0.023-0.252 0.063l0.003-0.001-1.001 0.526 0.191-1.114c0.005-0.027 0.008-0.058 0.008-0.090 0-0.15-0.061-0.285-0.161-0.382l-0-0-0.81-0.789 1.119-0.163c0.177-0.026 0.324-0.137 0.401-0.289l0.001-0.003 0.5-1.013 0.5 1.013c0.078 0.155 0.225 0.265 0.399 0.292l0.003 0 1.119 0.163-0.809 0.789zM26.134 20.522h-1.067v1.067h1.067v-1.067zM26.134 22.656h-1.067v1.067h1.067v-1.067zM27.2 21.589h-1.067v1.067h1.067v-1.067zM25.067 21.589h-1.067v1.067h1.067v-1.067zM22.4 26.389h-1.067v1.067h1.067v-1.067zM22.4 28.522h-1.067v1.067h1.067v-1.067zM23.467 27.456h-1.067v1.067h1.067v-1.067zM21.333 27.456h-1.067v1.067h1.067v-1.067zM16 24.256h-1.067v1.067h1.067v-1.067zM16 26.389h-1.067v1.067h1.067v-1.067zM17.067 25.322h-1.067v1.067h1.067v-1.067zM14.933 25.322h-1.067v1.067h1.067v-1.067zM5.867 6.122h-1.067v1.067h1.067v-1.067zM5.867 8.255h-1.067v1.067h1.067v-1.067z"></path>
<path fill="#4d5ae5" style="fill: var(--color3, #4d5ae5)" d="M6.933 7.189h-1.067v1.067h1.067v-1.067zM4.8 7.189h-1.067v1.067h1.067v-1.067z"></path>
<path fill="#2e2f42" style="fill: var(--color4, #2e2f42)" d="M24.715 14.159c-0.28-0.376-0.698-0.636-1.179-0.704l-0.009-0.001c-0.076-0.012-0.164-0.018-0.254-0.018-0.411 0-0.789 0.139-1.090 0.373l0.004-0.003-1.252 0.96-1.898 1.417-1.358-0.541c2.421-1.086 4.114-3.508 4.114-6.32 0-3.823-3.123-6.933-6.961-6.933s-6.961 3.11-6.961 6.933c0 0 0 0.001 0 0.001 0 1.398 0.418 2.698 1.136 3.782l-0.016-0.025-2.769-0.024c-0.009 0-0.015 0.004-0.023 0.005-0.056 0.002-0.109 0.014-0.159 0.032l0.004-0.001-0.038 0.013c-0.006 0.003-0.013 0.003-0.019 0.006l-3.234 1.597-1.893 0.911c-0.024 0.011-0.045 0.023-0.064 0.036l0.001-0.001c-0.482 0.323-0.795 0.866-0.795 1.482 0 0.297 0.073 0.577 0.201 0.823l-0.005-0.010c0.22 0.429 0.595 0.745 1.056 0.889 0.161 0.053 0.346 0.083 0.538 0.083 0.308 0 0.597-0.078 0.85-0.216l-0.009 0.005 1.388-0.738 2.264-1.169 1.357-0.008-6.783 6.75c-0.316 0.315-0.49 0.732-0.49 1.178s0.174 0.863 0.49 1.179c0.325 0.323 0.752 0.485 1.179 0.485s0.854-0.162 1.18-0.485l1.314-1.309 1.741-1.3 0.901 0.897-3.103 3.088c-0.316 0.315-0.49 0.732-0.49 1.178s0.174 0.863 0.49 1.179c0.325 0.323 0.753 0.485 1.18 0.485s0.855-0.162 1.18-0.485l3.483-3.469 1.010-1-0.004-0.004c0.006-0.006 0.015-0.009 0.022-0.015l5.166-5.658 3.471 0.494c0.020 0.003 0.044 0.005 0.068 0.005 0.070 0 0.136-0.014 0.197-0.039l-0.003 0.001c0.018-0.006 0.033-0.015 0.050-0.023 0.019-0.010 0.039-0.015 0.058-0.027l3.213-2.133c0.012-0.008 0.018-0.021 0.029-0.029 0.013-0.010 0.029-0.014 0.041-0.026l1.271-1.191c0.662-0.62 0.753-1.635 0.212-2.362zM2.13 17.77c-0.098 0.054-0.215 0.086-0.34 0.086-0.078 0-0.153-0.012-0.223-0.036l0.005 0.001c-0.294-0.094-0.503-0.365-0.503-0.684 0-0.235 0.113-0.444 0.288-0.574l0.002-0.001 1.314-0.632 0.449 1.313-0.992 0.527zM5.628 15.942l-1.548 0.8-0.439-1.283 2.027-1.001-0.040 1.484zM20.727 9.322c-0.001 0.932-0.222 1.813-0.614 2.592l0.015-0.033-4.181-1.899c-0.044-0.575-0.342-1.073-0.782-1.384l-0.006-0.004 1.464-4.86c2.378 0.756 4.105 2.974 4.105 5.588zM8.938 9.322c0-3.235 2.644-5.867 5.894-5.867 0.253 0 0.5 0.021 0.745 0.052l-1.432 4.754c-0.019-0.001-0.037-0.006-0.057-0.006-1.033 0-1.873 0.837-1.873 1.867s0.84 1.867 1.873 1.867c0.694 0 1.294-0.383 1.618-0.945l3.862 1.755c-1.085 1.456-2.802 2.389-4.737 2.39h-0c-3.25 0-5.894-2.632-5.894-5.867zM14.894 10.122c0 0.441-0.362 0.8-0.806 0.8s-0.806-0.359-0.806-0.8c0-0.441 0.362-0.8 0.806-0.8s0.806 0.359 0.806 0.8zM2.465 25.146c-0.11 0.109-0.261 0.176-0.428 0.176s-0.317-0.067-0.427-0.175l0 0c-0.109-0.107-0.177-0.257-0.177-0.422s0.068-0.315 0.177-0.422l0-0 0.962-0.958 0.851 0.848-0.959 0.955zM5.679 28.88c-0.11 0.109-0.261 0.176-0.428 0.176s-0.317-0.067-0.427-0.175l0 0c-0.109-0.107-0.177-0.257-0.177-0.422s0.068-0.315 0.177-0.422l0-0 0.963-0.959 0.852 0.848-0.96 0.955zM9.16 25.411l-0.002 0.001-1.765 1.76-0.852-0.848 1.765-1.756c0.040-0.040 0.065-0.088 0.090-0.135 0.007-0.014 0.020-0.026 0.026-0.040 0.017-0.041 0.019-0.085 0.026-0.129 0.003-0.025 0.014-0.047 0.014-0.073 0-0.036-0.013-0.070-0.020-0.106-0.006-0.032-0.006-0.065-0.019-0.095-0.025-0.053-0.055-0.098-0.091-0.138l0 0c-0.010-0.012-0.014-0.027-0.025-0.038h-0.001l-0.001-0.002-1.607-1.6c-0.017-0.017-0.039-0.024-0.058-0.038-0.025-0.021-0.054-0.040-0.084-0.057l-0.003-0.001c-0.026-0.013-0.057-0.024-0.089-0.032l-0.004-0.001c-0.030-0.009-0.065-0.017-0.101-0.020l-0.002-0c-0.006-0-0.014-0-0.021-0-0.026 0-0.052 0.002-0.076 0.006l0.003-0c-0.038 0.004-0.074 0.011-0.108 0.021l0.004-0.001c-0.036 0.013-0.067 0.028-0.096 0.046l0.002-0.001c-0.020 0.011-0.042 0.015-0.061 0.029l-1.773 1.324-0.901-0.897 2.399-2.386 4.361 4.289-0.928 0.919zM15.979 18.394c-0.015-0.002-0.030 0.004-0.045 0.003-0.006-0-0.013-0-0.020-0-0.103 0-0.199 0.028-0.282 0.077l0.003-0.001c-0.031 0.018-0.059 0.039-0.083 0.061l0-0c-0.013 0.011-0.028 0.017-0.040 0.029l-4.698 5.146-4.328-4.257 2.833-2.818c0.096-0.097 0.156-0.23 0.156-0.377 0-0.295-0.239-0.534-0.534-0.534-0 0-0.001 0-0.001 0h0v-0.001l-2.219 0.013 0.028-1.607 3.104 0.027c1.263 1.297 3.027 2.101 4.978 2.101 0.001 0 0.002 0 0.004 0h-0c0.437 0 0.864-0.045 1.279-0.123 0.040 0.032 0.079 0.065 0.13 0.085l2.41 0.96 0.152 0.758 0.178 0.885-3.003-0.427zM20.020 18.572l-0.313-1.558 1.446-1.080 0.947 1.257-2.080 1.381zM23.774 15.741l-0.838 0.785-0.931-1.236 0.831-0.637c0.122-0.093 0.277-0.15 0.445-0.15 0.035 0 0.069 0.002 0.102 0.007l-0.004-0c0.198 0.028 0.367 0.132 0.479 0.282l0.001 0.002c0.088 0.117 0.141 0.265 0.141 0.426 0 0.205-0.087 0.391-0.226 0.521l-0 0z"></path>
<path fill="#2e2f42" style="fill: var(--color4, #2e2f42)" d="M13.602 18.544l-2.143-2.133c-0.097-0.096-0.23-0.155-0.377-0.155s-0.28 0.059-0.377 0.155l0-0-2.142 2.133c-0.096 0.097-0.156 0.231-0.156 0.378s0.059 0.281 0.156 0.378l-0-0 2.142 2.133c0.097 0.096 0.23 0.154 0.377 0.154s0.28-0.059 0.377-0.155l-0 0 2.143-2.133c0.097-0.097 0.156-0.23 0.156-0.378s-0.060-0.281-0.156-0.378v0zM11.083 20.303l-1.387-1.381 1.387-1.381 1.387 1.381-1.387 1.381zM17.164 5.071l-0.258 1.036c0.071 0.018 1.738 0.452 1.738 2.149h1.067c0-2.017-1.666-2.965-2.547-3.185zM19.711 9.322h-1.067v1.067h1.067v-1.067z"></path>
</symbol>
<symbol id="icon-antenna" viewBox="0 0 32 32">
<path fill="#2e2f42" style="fill: var(--color4, #2e2f42)" d="M30.773 22.098l-8.443-8.505 0.937-4.615c0.242 0.094 0.499 0.144 0.758 0.146h0.006c0.008 0 0.017 0 0.026 0 1.192 0 2.159-0.967 2.159-2.159s-0.967-2.159-2.159-2.159c-1.192 0-2.159 0.967-2.159 2.159 0 0.26 0.046 0.508 0.13 0.739l-0.005-0.015-4.96 0.605-8.091-8.133c-0.096-0.098-0.229-0.159-0.377-0.16h-0c-0.146 0.001-0.277 0.060-0.373 0.155l0-0-1.513 1.504c-0.096 0.097-0.156 0.23-0.156 0.377s0.060 0.28 0.156 0.377v0l0.814 0.826c-1.143 2.062-1.816 4.522-1.816 7.139 0 4.105 1.656 7.824 4.336 10.525l-0.001-0.001c0.041 0.040 0.090 0.073 0.143 0.097l0.003 0.001c-0.034 0.18-0.051 0.364-0.052 0.547v6.187h-6.4c-1.472 0.002-2.665 1.195-2.667 2.667v1.067c0 0.295 0.239 0.533 0.533 0.533h24.533c0.294 0 0.533-0.239 0.533-0.533v0-1.067c-0.002-1.472-1.195-2.665-2.667-2.667h-6.4v-2.742c0.915 0.2 1.968 0.317 3.047 0.32h0.002c2.58-0.003 5.005-0.663 7.117-1.822l-0.077 0.039 0.818 0.823c0.096 0.098 0.229 0.159 0.377 0.16h0c0.146-0.001 0.277-0.060 0.373-0.155l-0 0 1.513-1.504c0.096-0.097 0.156-0.23 0.156-0.377s-0.060-0.28-0.156-0.377v0zM23.28 6.233c0.193-0.193 0.46-0.312 0.754-0.312 0.589 0 1.067 0.478 1.067 1.067s-0.478 1.067-1.067 1.067c-0 0-0.001 0-0.001 0h-0.003c-0.587-0.003-1.061-0.48-1.061-1.067 0-0.295 0.12-0.563 0.314-0.756l0-0h-0.002zM22.024 9.738l-0.598 2.946-1.175-1.182 1.774-1.763zM21.419 8.836l-1.92 1.909-1.485-1.493 3.405-0.415zM24.004 28.8c0.884 0 1.6 0.716 1.6 1.6v0 0.533h-23.467v-0.533c0-0.884 0.716-1.6 1.6-1.6v0h20.267zM16.537 26.667v1.067h-5.333v-1.067h5.333zM11.204 25.6v-4.053c0-1.294 1.196-2.347 2.667-2.347s2.667 1.053 2.667 2.347v4.053h-5.333zM17.604 23.904v-2.357c0-1.882-1.675-3.413-3.733-3.413-0.017-0-0.038-0-0.058-0-1.353 0-2.54 0.707-3.213 1.771l-0.009 0.016c-2.36-2.482-3.811-5.846-3.811-9.55 0-2.314 0.567-4.496 1.569-6.414l-0.036 0.077 18.602 18.708c-1.823 0.947-3.979 1.502-6.266 1.502-1.079 0-2.129-0.124-3.136-0.358l0.093 0.018zM28.893 23.22l-21.057-21.181 0.755-0.752 7.935 7.98c0.004 0 0.006 0.007 0.010 0.010l13.115 13.191-0.757 0.752z"></path>
<path fill="#4d5ae5" style="fill: var(--color3, #4d5ae5)" d="M13.876 20.267h-0.005c-0.001 0-0.001 0-0.002 0-0.884 0-1.6 0.716-1.6 1.6s0.715 1.599 1.598 1.6h0.005c0.001 0 0.001 0 0.002 0 0.884 0 1.6-0.716 1.6-1.6s-0.715-1.599-1.598-1.6h-0zM14.249 22.245c-0.094 0.084-0.218 0.135-0.355 0.135-0.295 0-0.534-0.239-0.534-0.534 0-0.137 0.052-0.263 0.137-0.357l-0 0c0.096-0.095 0.227-0.154 0.373-0.155h0c0.293 0.002 0.53 0.241 0.53 0.534 0 0.147-0.060 0.28-0.156 0.377v0h0.005z"></path>
</symbol>
<symbol id="icon-modal-close" viewBox="0 0 32 32">
<path d="M32 3.223l-3.223-3.223-12.777 12.777-12.777-12.777-3.223 3.223 12.777 12.777-12.777 12.777 3.223 3.223 12.777-12.777 12.777 12.777 3.223-3.223-12.777-12.777 12.777-12.777z"></path>
</symbol>
<symbol id="icon-email" viewBox="0 0 24 32">
<path d="M20 8h-16c-1.1 0-1.99 0.9-1.99 2l-0.010 12c0 1.1 0.9 2 2 2h16c1.1 0 2-0.9 2-2v-12c0-1.1-0.9-2-2-2zM19.6 12.25l-7.070 4.42c-0.32 0.2-0.74 0.2-1.060 0l-7.070-4.42c-0.25-0.16-0.4-0.43-0.4-0.72 0-0.67 0.73-1.070 1.3-0.72l6.7 4.19 6.7-4.19c0.57-0.35 1.3 0.050 1.3 0.72 0 0.29-0.15 0.56-0.4 0.72z"></path>
</symbol>
<symbol id="icon-person" viewBox="0 0 32 32">
<path d="M16 16c2.947 0 5.333-2.387 5.333-5.333s-2.387-5.333-5.333-5.333c-2.947 0-5.333 2.387-5.333 5.333s2.387 5.333 5.333 5.333zM16 18.667c-3.56 0-10.667 1.787-10.667 5.333v1.333c0 0.733 0.6 1.333 1.333 1.333h18.667c0.733 0 1.333-0.6 1.333-1.333v-1.333c0-3.547-7.107-5.333-10.667-5.333z"></path>
</symbol>
<symbol id="icon-phone" viewBox="0 0 24 32">
<path d="M19.635 18.487l-2.451-0.28c-0.589-0.067-1.167 0.135-1.582 0.55l-1.775 1.775c-2.731-1.389-4.969-3.618-6.359-6.359l1.785-1.785c0.415-0.415 0.618-0.994 0.55-1.582l-0.28-2.432c-0.116-0.975-0.936-1.708-1.92-1.708h-1.669c-1.090 0-1.997 0.907-1.93 1.997 0.511 8.24 7.102 14.821 15.332 15.332 1.090 0.068 1.997-0.839 1.997-1.93v-1.669c0.010-0.975-0.724-1.795-1.698-1.911z"></path>
</symbol>
<symbol id="icon-icon-send" viewBox="0 0 38 32">
<path  d="M38.4 0l-38.4 18 12.272 3.788 18.928-14.788-14.397 16.186 0.012 0.004-0.014-0.004v8.814l6.882-6.691 8.718 2.691 6-28z"></path>
</symbol>
<symbol id="icon-click" viewBox="0 0 32 32">
<path d="M4 1.25h24c1.519 0 2.75 1.231 2.75 2.75v24c0 1.519-1.231 2.75-2.75 2.75h-24c-1.519 0-2.75-1.231-2.75-2.75v-24c0-1.519 1.231-2.75 2.75-2.75z"></path>
<path   d="M22.891 8.51c0.346-0.331 0.805-0.514 1.283-0.51s0.934 0.193 1.275 0.53c0.341 0.336 0.538 0.792 0.551 1.272s-0.161 0.945-0.483 1.299l-9.789 12.309c-0.168 0.182-0.371 0.328-0.597 0.43s-0.47 0.156-0.717 0.161c-0.247 0.005-0.493-0.041-0.723-0.134s-0.438-0.232-0.613-0.408l-6.492-6.527c-0.181-0.169-0.326-0.374-0.426-0.601s-0.155-0.472-0.159-0.72c-0.004-0.248 0.041-0.495 0.134-0.725s0.23-0.44 0.405-0.615c0.175-0.176 0.383-0.314 0.612-0.407s0.475-0.139 0.722-0.134c0.247 0.004 0.491 0.059 0.716 0.16s0.429 0.247 0.597 0.429l5.137 5.163 8.521-10.915c0.015-0.019 0.032-0.037 0.049-0.054h-0.002z"></path>
<path d="M4 1.25h24c1.519 0 2.75 1.231 2.75 2.75v24c0 1.519-1.231 2.75-2.75 2.75h-24c-1.519 0-2.75-1.231-2.75-2.75v-24c0-1.519 1.231-2.75 2.75-2.75z"></path>
</symbol>

<symbol id="icon-menu-hamburger" viewBox="0 0 47 32">
<path stroke-linejoin="round" stroke-linecap="round" stroke-miterlimit="4" stroke-width="4.3636" d="M1.96 29.154h42.965M1.96 15.615h42.965M1.96 2.077h42.965"></path>
</symbol>
</defs>
</svg>

